<svg xmlns="http://www.w3.org/2000/svg" width="32" height="32" viewBox="0 0 32 32"><g transform="translate(-90.006 -1412.991)"><polyline fill="#fee7a1" points="9.64 22.58 5 22.58 5 4.93 22.65 4.93 22.65 6.947" class="st18" transform="translate(90.506 1413.42)"/><path fill="#fff" d="m 95.505859,397.98828 0,17.65039 1.494141,0 0,-17.65039 -1.494141,0 z" transform="translate(0 1020.362)"/><path fill="#fff" d="m 95.505859,397.98828 0,1.51172 17.650391,0 0,-1.51172 -17.650391,0 z" transform="translate(0 1020.362)"/><polyline fill="#ffd28e" points="23.259 24.77 10.446 27.07 7.327 9.698 24.7 6.579 27 19.391" class="st20" transform="translate(90.506 1413.42)"/><path fill="#fff" d="m 115.20703,1420.4986 -17.373046,3.1192 0.173828,0.9687 17.199218,-3.0879 2.15625,12.0176 0.14258,-0.2051 -2.29883,-12.8125 z"/><path fill="#fff" d="m 115.20703,399.63672 -17.373046,3.11914 3.119136,17.37305 1.44532,-0.25977 -3.072268,-17.11328 15.927738,-2.85938 -0.0469,-0.25976 z" transform="translate(0 1020.362)"/><polygon fill="#bea47e" points="22.44 20.21 27 19.391 23.258 24.77" class="st18" transform="translate(90.506 1413.42)"/><path fill="#444a54" d="m 117.9953,1432.8532 c 0.002,-0.023 0.003,-0.043 0.001,-0.066 -0.001,-0.022 0.005,-0.042 10e-4,-0.064 l -2.3,-12.813 c -0.049,-0.272 -0.313,-0.452 -0.58,-0.404 l -1.461,0.263 0,-1.419 c 0,-0.276 -0.224,-0.5 -0.5,-0.5 l -17.649996,0 c -0.276,0 -0.5,0.224 -0.5,0.5 l 0,17.65 c 0,0.276 0.224,0.5 0.5,0.5 l 4.221999,0 0.731997,4.079 c 0.044,0.242 0.254,0.412 0.491,0.412 0.029,0 0.06,0 0.089,-0.01 l 12.813,-2.3 c 0.033,-0.01 0.06,-0.024 0.09,-0.036 0.023,-0.01 0.046,-0.014 0.068,-0.027 0.065,-0.037 0.123,-0.085 0.165,-0.145 l 3.739,-5.376 c 0.05,-0.071 0.073,-0.157 0.08,-0.246 z m -21.988996,2.647 0,-16.65 16.649996,0 0,1.099 -14.910996,2.677 c -0.272,0.048 -0.453,0.308 -0.404,0.58 l 2.206999,12.294 -3.541999,0 z m 2.407,-11.978 16.388996,-2.942 2.123,11.828 -4.068,0.73 c -0.131,0.023 -0.247,0.098 -0.322,0.207 -0.076,0.109 -0.105,0.244 -0.082,0.374 l 0.731,4.068 -11.828,2.123 -2.942996,-16.388 z m 15.629996,13.392 -0.518,-2.88 2.881,-0.517 -2.363,3.397 z" class="st21"/></g></svg>